<svg version="1.1" xmlns="http://www.w3.org/2000/svg" xmlns:xlink="http://www.w3.org/1999/xlink" width="637.8818359375" height="540"><defs/><g><g transform="translate(-52,2) scale(1,1)"><rect fill="#C0C0C0" stroke="none" x="183" y="15" width="97.14990234375" height="24" opacity="0.2"/></g><g transform="translate(-52,2) scale(1,1)"><rect fill="#ffffff" stroke="none" x="176" y="8" width="97.14990234375" height="24"/></g><g transform="translate(-52,2) scale(1,1)"><path fill="none" stroke="#000000" d="M 176 8 L 273.14990234375 8 L 273.14990234375 32 L 176 32 L 176 8 Z Z" stroke-miterlimit="10"/></g><g transform="translate(-52,2) scale(1,1)"><g><path fill="none" stroke="none"/><text fill="#000000" stroke="none" font-family="Arial" font-size="13px" font-style="normal" font-weight="bold" text-decoration="none" x="214.456787109375" y="27.5">idle</text></g></g><g transform="translate(-52,2) scale(1,1)"><rect fill="#C0C0C0" stroke="none" x="255" y="63" width="97.14990234375" height="24" opacity="0.2"/></g><g transform="translate(-52,2) scale(1,1)"><rect fill="#ffffff" stroke="none" x="248" y="56" width="97.14990234375" height="24"/></g><g transform="translate(-52,2) scale(1,1)"><path fill="none" stroke="#000000" d="M 248 56 L 345.14990234375 56 L 345.14990234375 80 L 248 80 L 248 56 Z Z" stroke-miterlimit="10"/></g><g transform="translate(-52,2) scale(1,1)"><g><path fill="none" stroke="none"/><text fill="#000000" stroke="none" font-family="Arial" font-size="13px" font-style="normal" font-weight="bold" text-decoration="none" x="258.2763671875" y="75.5">wait_address</text></g></g><g transform="translate(-52,2) scale(1,1)"><rect fill="#C0C0C0" stroke="none" x="335" y="119" width="85.5908203125" height="24" opacity="0.2"/></g><g transform="translate(-52,2) scale(1,1)"><rect fill="#ffffff" stroke="none" x="328" y="112" width="85.5908203125" height="24"/></g><g transform="translate(-52,2) scale(1,1)"><path fill="none" stroke="#000000" d="M 328 112 L 413.5908203125 112 L 413.5908203125 136 L 328 136 L 328 112 Z Z" stroke-miterlimit="10"/></g><g transform="translate(-52,2) scale(1,1)"><g><path fill="none" stroke="none"/><text fill="#000000" stroke="none" font-family="Arial" font-size="13px" font-style="normal" font-weight="bold" text-decoration="none" x="335.02001953125" y="131.5">get_address</text></g></g><g transform="translate(-52,2) scale(1,1)"><rect fill="#C0C0C0" stroke="none" x="431" y="167" width="60.2763671875" height="24" opacity="0.2"/></g><g transform="translate(-52,2) scale(1,1)"><rect fill="#ffffff" stroke="none" x="424" y="160" width="60.2763671875" height="24"/></g><g transform="translate(-52,2) scale(1,1)"><path fill="none" stroke="#000000" d="M 424 160 L 484.2763671875 160 L 484.2763671875 184 L 424 184 L 424 160 Z Z" stroke-miterlimit="10"/></g><g transform="translate(-52,2) scale(1,1)"><g><path fill="none" stroke="none"/><text fill="#000000" stroke="none" font-family="Arial" font-size="13px" font-style="normal" font-weight="bold" text-decoration="none" x="430.2900390625" y="179.5">wz_loop</text></g></g><g transform="translate(-52,2) scale(1,1)"><rect fill="#C0C0C0" stroke="none" x="359" y="215" width="66.12451171875" height="24" opacity="0.2"/></g><g transform="translate(-52,2) scale(1,1)"><rect fill="#ffffff" stroke="none" x="352" y="208" width="66.12451171875" height="24"/></g><g transform="translate(-52,2) scale(1,1)"><path fill="none" stroke="#000000" d="M 352 208 L 418.12451171875 208 L 418.12451171875 232 L 352 232 L 352 208 Z Z" stroke-miterlimit="10"/></g><g transform="translate(-52,2) scale(1,1)"><g><path fill="none" stroke="none"/><text fill="#000000" stroke="none" font-family="Arial" font-size="13px" font-style="normal" font-weight="bold" text-decoration="none" x="361.944091796875" y="227.5">wait_wz</text></g></g><g transform="translate(-52,2) scale(1,1)"><rect fill="#C0C0C0" stroke="none" x="415" y="295" width="104" height="24" opacity="0.2"/></g><g transform="translate(-52,2) scale(1,1)"><rect fill="#ffffff" stroke="none" x="408" y="288" width="104" height="24"/></g><g transform="translate(-52,2) scale(1,1)"><path fill="none" stroke="#000000" d="M 408 288 L 512 288 L 512 312 L 408 312 L 408 288 Z Z" stroke-miterlimit="10"/></g><g transform="translate(-52,2) scale(1,1)"><g><path fill="none" stroke="none"/><text fill="#000000" stroke="none" font-family="Arial" font-size="13px" font-style="normal" font-weight="bold" text-decoration="none" x="431.4609375" y="307.5">check_wz</text></g></g><g transform="translate(-52,2) scale(1,1)"><rect fill="#C0C0C0" stroke="none" x="415" y="343" width="104" height="24" opacity="0.2"/></g><g transform="translate(-52,2) scale(1,1)"><rect fill="#ffffff" stroke="none" x="408" y="336" width="104" height="24"/></g><g transform="translate(-52,2) scale(1,1)"><path fill="none" stroke="#000000" d="M 408 336 L 512 336 L 512 360 L 408 360 L 408 336 Z Z" stroke-miterlimit="10"/></g><g transform="translate(-52,2) scale(1,1)"><g><path fill="none" stroke="none"/><text fill="#000000" stroke="none" font-family="Arial" font-size="13px" font-style="normal" font-weight="bold" text-decoration="none" x="421.701416015625" y="355.5">calc_address</text></g></g><g transform="translate(-52,2) scale(1,1)"><rect fill="#C0C0C0" stroke="none" x="415" y="391" width="102.89453125" height="44" opacity="0.2"/></g><g transform="translate(-52,2) scale(1,1)"><rect fill="#ffffff" stroke="none" x="408" y="384" width="102.89453125" height="44"/></g><g transform="translate(-52,2) scale(1,1)"><path fill="none" stroke="#000000" d="M 408 384 L 510.89453125 384 L 510.89453125 428 L 408 428 L 408 384 Z Z" stroke-miterlimit="10"/></g><g transform="translate(-52,2) scale(1,1)"><g><path fill="none" stroke="none"/><text fill="#000000" stroke="none" font-family="Arial" font-size="13px" font-style="normal" font-weight="bold" text-decoration="none" x="416.445068359375" y="403.5">output address</text></g></g><g transform="translate(-52,2) scale(1,1)"><rect fill="#C0C0C0" stroke="none" x="415" y="455" width="104" height="32" opacity="0.2"/></g><g transform="translate(-52,2) scale(1,1)"><rect fill="#ffffff" stroke="none" x="408" y="448" width="104" height="32"/></g><g transform="translate(-52,2) scale(1,1)"><path fill="none" stroke="#000000" d="M 408 448 L 512 448 L 512 480 L 408 480 L 408 448 Z Z" stroke-miterlimit="10"/></g><g transform="translate(-52,2) scale(1,1)"><g><path fill="none" stroke="none"/><text fill="#000000" stroke="none" font-family="Arial" font-size="13px" font-style="normal" font-weight="bold" text-decoration="none" x="430.365966796875" y="467.5">wait_done</text></g></g><g transform="translate(-52,2) scale(1,1)"><rect fill="#C0C0C0" stroke="none" x="359" y="255" width="72" height="24" opacity="0.2"/></g><g transform="translate(-52,2) scale(1,1)"><rect fill="#ffffff" stroke="none" x="352" y="248" width="72" height="24"/></g><g transform="translate(-52,2) scale(1,1)"><path fill="none" stroke="#000000" d="M 352 248 L 424 248 L 424 272 L 352 272 L 352 248 Z Z" stroke-miterlimit="10"/></g><g transform="translate(-52,2) scale(1,1)"><g><path fill="none" stroke="none"/><text fill="#000000" stroke="none" font-family="Arial" font-size="13px" font-style="normal" font-weight="bold" text-decoration="none" x="367.405029296875" y="267.5">get_wz</text></g></g><g transform="translate(-52,2) scale(1,1)"><rect fill="#C0C0C0" stroke="none" x="415" y="511" width="104" height="24" opacity="0.2"/></g><g transform="translate(-52,2) scale(1,1)"><rect fill="#ffffff" stroke="none" x="408" y="504" width="104" height="24"/></g><g transform="translate(-52,2) scale(1,1)"><path fill="none" stroke="#000000" d="M 408 504 L 512 504 L 512 528 L 408 528 L 408 504 Z Z" stroke-miterlimit="10"/></g><g transform="translate(-52,2) scale(1,1)"><g><path fill="none" stroke="none"/><text fill="#000000" stroke="none" font-family="Arial" font-size="13px" font-style="normal" font-weight="bold" text-decoration="none" x="445.5400390625" y="523.5">done</text></g></g><g transform="translate(-52,2) scale(1,1)"><rect fill="#C0C0C0" stroke="none" x="87" y="207" width="64" height="32" opacity="0.2"/></g><g transform="translate(-52,2) scale(1,1)"><rect fill="#ffffff" stroke="none" x="80" y="200" width="64" height="32"/></g><g transform="translate(-52,2) scale(1,1)"><path fill="none" stroke="#000000" d="M 80 200 L 144 200 L 144 232 L 80 232 L 80 200 Z Z" stroke-miterlimit="10"/></g><g transform="translate(-52,2) scale(1,1)"><g><path fill="none" stroke="none"/><text fill="#000000" stroke="none" font-family="Arial" font-size="13px" font-style="normal" font-weight="bold" text-decoration="none" x="97.549560546875" y="219.5">reset</text></g></g><g transform="translate(-52,2) scale(1,1)"><path fill="none" stroke="#000000" d="M 244 33 L 277 55" stroke-miterlimit="10"/></g><g transform="translate(-52,2) scale(1,1)"><path fill="none" stroke="#000000" d="M 266.20912306817837 52.86529275021616 L 277 55 L 270.87916371872967 45.8602317743892" stroke-miterlimit="10"/></g><g transform="translate(-52,2) scale(1,1)"><path fill="none" stroke="#000000" d="M 313 81 L 353 111" stroke-miterlimit="10"/></g><g transform="translate(-52,2) scale(1,1)"><path fill="none" stroke="#000000" d="M 342.3441494602911 108.2700092902383 L 353 111 L 347.39557076751026 101.53478088061271" stroke-miterlimit="10"/></g><g transform="translate(-52,2) scale(1,1)"><path fill="none" stroke="#000000" d="M 393 137 L 431 159" stroke-miterlimit="10"/></g><g transform="translate(-52,2) scale(1,1)"><path fill="none" stroke="#000000" d="M 420.0958329701606 157.5511586058638 L 431 159 L 424.3140751246672 150.26510397535228" stroke-miterlimit="10"/></g><g transform="translate(-52,2) scale(1,1)"><path fill="none" stroke="#000000" d="M 435 185 L 404 207" stroke-miterlimit="10"/></g><g transform="translate(-52,2) scale(1,1)"><path fill="none" stroke="#000000" d="M 409.85148815826324 197.6854905478761 L 404 207 L 414.72397975376373 204.5512741597177" stroke-miterlimit="10"/></g><g transform="translate(-52,2) scale(1,1)"><path fill="none" stroke="#000000" d="M 386 233 L 387 247" stroke-miterlimit="10"/></g><g transform="translate(-52,2) scale(1,1)"><path fill="none" stroke="#000000" d="M 382.0771192885779 237.1630672716996 L 387 247 L 390.4747595042381 236.56323582772384" stroke-miterlimit="10"/></g><g transform="translate(-52,2) scale(1,1)"><path fill="none" stroke="#000000" d="M 411 273 L 437 287" stroke-miterlimit="10"/></g><g transform="translate(-52,2) scale(1,1)"><path fill="none" stroke="#000000" d="M 426.05632686676626 285.8882363772193 L 437 287 L 430.04779011314616 278.4755189196566" stroke-miterlimit="10"/></g><g transform="translate(-52,2) scale(1,1)"><path fill="none" stroke="#000000" d="M 459 287 L 455 185" stroke-miterlimit="10"/></g><g transform="translate(-52,2) scale(1,1)"><path fill="none" stroke="#000000" d="M 459.60451481241955 194.98991708385054 L 455 185 L 451.19194553445374 195.31982176141784" stroke-miterlimit="10"/></g><g transform="translate(-52,2) scale(1,1)"><g><path fill="none" stroke="none"/><text fill="#000000" stroke="none" font-family="Arial" font-size="13px" font-style="normal" font-weight="normal" text-decoration="none" x="463.5" y="244.5">+!belongs &amp;&amp; #wz&lt;7</text></g></g><g transform="translate(-52,2) scale(1,1)"><path fill="none" stroke="#000000" d="M 460 313 L 460 335" stroke-miterlimit="10"/></g><g transform="translate(-52,2) scale(1,1)"><path fill="none" stroke="#000000" d="M 455.790482243984 324.83732514237585 L 460 335 L 464.209517756016 324.83732514237585" stroke-miterlimit="10"/></g><g transform="translate(-52,2) scale(1,1)"><g><path fill="none" stroke="none"/><text fill="#000000" stroke="none" font-family="Arial" font-size="13px" font-style="normal" font-weight="normal" text-decoration="none" x="469.5" y="332.5">+belongs to WZ || !belong to any WZ</text></g></g><g transform="translate(-52,2) scale(1,1)"><path fill="none" stroke="#000000" d="M 112 199 L 112 16 L 175 18" stroke-miterlimit="10"/></g><g transform="translate(-52,2) scale(1,1)"><path fill="none" stroke="#000000" d="M 164.7088741046816 21.884936010632256 L 175 18 L 164.976010495782 13.470139690969768" stroke-miterlimit="10"/></g><g transform="translate(-52,2) scale(1,1)"><path fill="none" stroke="#000000" d="M 460 361 L 459 383" stroke-miterlimit="10"/></g><g transform="translate(-52,2) scale(1,1)"><path fill="none" stroke="#000000" d="M 455.25628748624484 372.6566631779511 L 459 383 L 463.66663910167813 373.0389518877435" stroke-miterlimit="10"/></g><g transform="translate(-52,2) scale(1,1)"><path fill="none" stroke="#000000" d="M 459 429 L 460 447" stroke-miterlimit="10"/></g><g transform="translate(-52,2) scale(1,1)"><path fill="none" stroke="#000000" d="M 455.2332396407341 437.0864741046724 L 460 447 L 463.6393128117264 436.6194700396173" stroke-miterlimit="10"/></g><g transform="translate(-52,2) scale(1,1)"><path fill="none" stroke="#000000" d="M 460 481 L 460 503" stroke-miterlimit="10"/></g><g transform="translate(-52,2) scale(1,1)"><path fill="none" stroke="#000000" d="M 455.790482243984 492.83732514237585 L 460 503 L 464.209517756016 492.83732514237585" stroke-miterlimit="10"/></g><g transform="translate(-52,2) scale(1,1)"><path fill="none" stroke="#000000" d="M 407 512 L 216 496 L 224 33" stroke-miterlimit="10"/></g><g transform="translate(-52,2) scale(1,1)"><path fill="none" stroke="#000000" d="M 228.03331875223768 43.2338819537284 L 224 33 L 219.61553971305014 43.08843436773812" stroke-miterlimit="10"/></g><g transform="translate(-52,2) scale(1,1)"><path fill="none" stroke="#000000" d="M 280 81 L 133 199" stroke-miterlimit="10" stroke-dasharray="3"/></g><g transform="translate(-52,2) scale(1,1)"><path fill="none" stroke="#000000" d="M 138.29007737342064 189.35556733741052 L 133 199 L 143.56029332016132 195.92100584733322" stroke-miterlimit="10"/></g><g transform="translate(-52,2) scale(1,1)"><g><path fill="none" stroke="none"/><text fill="#000000" stroke="none" font-family="Arial" font-size="13px" font-style="normal" font-weight="normal" text-decoration="none" x="61.5" y="283.5">+rising_edge(i_rst)</text></g></g><g transform="translate(-52,2) scale(1,1)"><path fill="none" stroke="#000000" d="M 334 137 L 145 204" stroke-miterlimit="10" stroke-dasharray="3"/></g><g transform="translate(-52,2) scale(1,1)"><path fill="none" stroke="#000000" d="M 153.17211557064192 196.63681270779617 L 145 204 L 155.98511800210503 204.57199867117714" stroke-miterlimit="10"/></g><g transform="translate(-52,2) scale(1,1)"><path fill="none" stroke="#000000" d="M 423 176 L 145 212" stroke-miterlimit="10" stroke-dasharray="3"/></g><g transform="translate(-52,2) scale(1,1)"><path fill="none" stroke="#000000" d="M 154.53791774854545 206.5202075749184 L 145 212 L 155.6191247016659 214.86952793512614" stroke-miterlimit="10"/></g><g transform="translate(-52,2) scale(1,1)"><path fill="none" stroke="#000000" d="M 351 220 L 145 216" stroke-miterlimit="10" stroke-dasharray="3"/></g><g transform="translate(-52,2) scale(1,1)"><path fill="none" stroke="#000000" d="M 155.2424823440594 211.98857189624053 L 145 216 L 155.0790367360785 220.40602070725728" stroke-miterlimit="10"/></g><g transform="translate(-52,2) scale(1,1)"><path fill="none" stroke="#000000" d="M 351 254 L 145 221" stroke-miterlimit="10" stroke-dasharray="3"/></g><g transform="translate(-52,2) scale(1,1)"><path fill="none" stroke="#000000" d="M 155.70058468039556 218.45098303307262 L 145 221 L 154.36888317284252 226.76402880749467" stroke-miterlimit="10"/></g><g transform="translate(-52,2) scale(1,1)"><path fill="none" stroke="#000000" d="M 407 287 L 145 224" stroke-miterlimit="10" stroke-dasharray="3"/></g><g transform="translate(-52,2) scale(1,1)"><path fill="none" stroke="#000000" d="M 155.86518804567413 222.28311656419538 L 145 224 L 153.8968680659275 230.4688282259989" stroke-miterlimit="10"/></g><g transform="translate(-52,2) scale(1,1)"><path fill="none" stroke="#000000" d="M 426 335 L 145 229" stroke-miterlimit="10" stroke-dasharray="3"/></g><g transform="translate(-52,2) scale(1,1)"><path fill="none" stroke="#000000" d="M 155.99437556788894 228.64828154412012 L 145 229 L 153.0229000241871 236.52549501374486" stroke-miterlimit="10"/></g><g transform="translate(-52,2) scale(1,1)"><path fill="none" stroke="#000000" d="M 417 383 L 143 233" stroke-miterlimit="10" stroke-dasharray="3"/></g><g transform="translate(-52,2) scale(1,1)"><path fill="none" stroke="#000000" d="M 153.93569602030792 234.1876668520345 L 143 233 L 149.89289752809037 241.57251209781856" stroke-miterlimit="10"/></g><g transform="translate(-52,2) scale(1,1)"><path fill="none" stroke="#000000" d="M 436 447 L 136 233" stroke-miterlimit="10" stroke-dasharray="3"/></g><g transform="translate(-52,2) scale(1,1)"><path fill="none" stroke="#000000" d="M 146.71800467340364 235.47474762771844 L 136 233 L 141.82886295606778 242.32868461463784" stroke-miterlimit="10"/></g><g transform="translate(-52,2) scale(1,1)"><path fill="none" stroke="#000000" d="M 445 503 L 132 233" stroke-miterlimit="10" stroke-dasharray="3"/></g><g transform="translate(-52,2) scale(1,1)"><path fill="none" stroke="#000000" d="M 142.44478253405586 236.45058224308326 L 132 233 L 136.94564645472366 242.82550666097578" stroke-miterlimit="10"/></g></g></svg>